<svg width="73" height="14" viewBox="0 0 73 14" fill="none" xmlns="http://www.w3.org/2000/svg">
<rect width="72.3983" height="13.8935" rx="2" fill="white"/>
<path d="M5.1397 8.99242V3.15242H8.5717V3.92042H5.9877V5.57642H8.2917V6.33642H5.9877V8.22442H8.5717V8.99242H5.1397ZM9.85657 8.99242V4.59242H10.7126V5.43242H10.9206L10.7126 5.63242C10.7126 5.28042 10.8166 5.00575 11.0246 4.80842C11.2326 4.61109 11.5206 4.51242 11.8886 4.51242C12.3259 4.51242 12.6752 4.65375 12.9366 4.93642C13.1979 5.21375 13.3286 5.58975 13.3286 6.06442V8.99242H12.4646V6.16042C12.4646 5.87242 12.3872 5.65109 12.2326 5.49642C12.0779 5.34175 11.8672 5.26442 11.6006 5.26442C11.3286 5.26442 11.1126 5.34709 10.9526 5.51242C10.7979 5.67242 10.7206 5.90709 10.7206 6.21642V8.99242H9.85657ZM16.8614 8.99242C16.4614 8.99242 16.1494 8.88309 15.9254 8.66442C15.7014 8.44575 15.5894 8.14175 15.5894 7.75242V5.37642H14.3734V4.59242H15.5894V3.35242H16.4534V4.59242H18.1734V5.37642H16.4534V7.75242C16.4534 8.05642 16.6001 8.20842 16.8934 8.20842H18.0934V8.99242H16.8614ZM19.5943 8.99242V4.59242H20.4263V5.43242H20.6343L20.3703 5.95242C20.3703 5.47775 20.4743 5.12042 20.6823 4.88042C20.8903 4.63509 21.1997 4.51242 21.6103 4.51242C22.0797 4.51242 22.4503 4.65909 22.7223 4.95242C22.9997 5.24042 23.1383 5.63775 23.1383 6.14442V6.44042H22.2503V6.21642C22.2503 5.90175 22.1703 5.66175 22.0103 5.49642C21.8557 5.32575 21.637 5.24042 21.3543 5.24042C21.0717 5.24042 20.8503 5.32575 20.6903 5.49642C20.5357 5.66709 20.4583 5.90709 20.4583 6.21642V8.99242H19.5943ZM25.9752 9.07242C25.6179 9.07242 25.3032 9.00309 25.0312 8.86442C24.7645 8.72042 24.5592 8.52042 24.4152 8.26442C24.2712 8.00842 24.1992 7.70975 24.1992 7.36842V6.21642C24.1992 5.86975 24.2712 5.57109 24.4152 5.32042C24.5592 5.06442 24.7645 4.86709 25.0312 4.72842C25.3032 4.58442 25.6179 4.51242 25.9752 4.51242C26.3379 4.51242 26.6525 4.58442 26.9192 4.72842C27.1859 4.86709 27.3912 5.06442 27.5352 5.32042C27.6792 5.57109 27.7512 5.86975 27.7512 6.21642V7.00042H25.0312V7.36842C25.0312 7.69375 25.1112 7.94175 25.2712 8.11242C25.4365 8.28309 25.6739 8.36842 25.9832 8.36842C26.2339 8.36842 26.4365 8.32575 26.5912 8.24042C26.7459 8.14975 26.8419 8.01909 26.8792 7.84842H27.7352C27.6712 8.22175 27.4792 8.52042 27.1592 8.74442C26.8392 8.96309 26.4445 9.07242 25.9752 9.07242ZM26.9192 6.48042V6.20842C26.9192 5.88842 26.8392 5.64042 26.6792 5.46442C26.5192 5.28842 26.2845 5.20042 25.9752 5.20042C25.6712 5.20042 25.4365 5.28842 25.2712 5.46442C25.1112 5.64042 25.0312 5.89109 25.0312 6.21642V6.41642L26.9832 6.40842L26.9192 6.48042ZM29.0441 10.4324V4.59242H29.9001V5.43242H30.0841L29.9001 5.63242C29.9001 5.28575 30.0067 5.01375 30.2201 4.81642C30.4387 4.61375 30.7294 4.51242 31.0921 4.51242C31.5347 4.51242 31.8867 4.66175 32.1481 4.96042C32.4147 5.25375 32.5481 5.65642 32.5481 6.16842V7.40842C32.5481 7.74975 32.4867 8.04575 32.3641 8.29642C32.2467 8.54175 32.0787 8.73375 31.8601 8.87242C31.6467 9.00575 31.3907 9.07242 31.0921 9.07242C30.7347 9.07242 30.4467 8.97375 30.2281 8.77642C30.0094 8.57375 29.9001 8.29909 29.9001 7.95242L30.0841 8.15242H29.8841L29.9081 9.17642V10.4324H29.0441ZM30.7961 8.32042C31.0787 8.32042 31.2974 8.24042 31.4521 8.08042C31.6121 7.91509 31.6921 7.67775 31.6921 7.36842V6.21642C31.6921 5.90709 31.6121 5.67242 31.4521 5.51242C31.2974 5.34709 31.0787 5.26442 30.7961 5.26442C30.5241 5.26442 30.3081 5.34975 30.1481 5.52042C29.9881 5.68575 29.9081 5.91775 29.9081 6.21642V7.36842C29.9081 7.66709 29.9881 7.90175 30.1481 8.07242C30.3081 8.23775 30.5241 8.32042 30.7961 8.32042ZM33.9849 8.99242V4.59242H34.8169V5.43242H35.0249L34.7609 5.95242C34.7609 5.47775 34.8649 5.12042 35.0729 4.88042C35.2809 4.63509 35.5903 4.51242 36.0009 4.51242C36.4703 4.51242 36.8409 4.65909 37.1129 4.95242C37.3903 5.24042 37.5289 5.63775 37.5289 6.14442V6.44042H36.6409V6.21642C36.6409 5.90175 36.5609 5.66175 36.4009 5.49642C36.2463 5.32575 36.0276 5.24042 35.7449 5.24042C35.4623 5.24042 35.2409 5.32575 35.0809 5.49642C34.9263 5.66709 34.8489 5.90709 34.8489 6.21642V8.99242H33.9849ZM40.3658 9.07242C40.0085 9.07242 39.6938 9.00309 39.4218 8.86442C39.1552 8.72042 38.9498 8.52042 38.8058 8.26442C38.6618 8.00842 38.5898 7.70975 38.5898 7.36842V6.21642C38.5898 5.86975 38.6618 5.57109 38.8058 5.32042C38.9498 5.06442 39.1552 4.86709 39.4218 4.72842C39.6938 4.58442 40.0085 4.51242 40.3658 4.51242C40.7285 4.51242 41.0432 4.58442 41.3098 4.72842C41.5765 4.86709 41.7818 5.06442 41.9258 5.32042C42.0698 5.57109 42.1418 5.86975 42.1418 6.21642V7.00042H39.4218V7.36842C39.4218 7.69375 39.5018 7.94175 39.6618 8.11242C39.8272 8.28309 40.0645 8.36842 40.3738 8.36842C40.6245 8.36842 40.8272 8.32575 40.9818 8.24042C41.1365 8.14975 41.2325 8.01909 41.2698 7.84842H42.1258C42.0618 8.22175 41.8698 8.52042 41.5498 8.74442C41.2298 8.96309 40.8352 9.07242 40.3658 9.07242ZM41.3098 6.48042V6.20842C41.3098 5.88842 41.2298 5.64042 41.0698 5.46442C40.9098 5.28842 40.6752 5.20042 40.3658 5.20042C40.0618 5.20042 39.8272 5.28842 39.6618 5.46442C39.5018 5.64042 39.4218 5.89109 39.4218 6.21642V6.41642L41.3738 6.40842L41.3098 6.48042ZM43.4347 8.99242V4.59242H44.2907V5.43242H44.4987L44.2907 5.63242C44.2907 5.28042 44.3947 5.00575 44.6027 4.80842C44.8107 4.61109 45.0987 4.51242 45.4667 4.51242C45.904 4.51242 46.2534 4.65375 46.5147 4.93642C46.776 5.21375 46.9067 5.58975 46.9067 6.06442V8.99242H46.0427V6.16042C46.0427 5.87242 45.9654 5.65109 45.8107 5.49642C45.656 5.34175 45.4454 5.26442 45.1787 5.26442C44.9067 5.26442 44.6907 5.34709 44.5307 5.51242C44.376 5.67242 44.2987 5.90709 44.2987 6.21642V8.99242H43.4347ZM49.9596 9.07242C49.6022 9.07242 49.2876 9.00309 49.0156 8.86442C48.7489 8.72042 48.5436 8.52042 48.3996 8.26442C48.2556 8.00842 48.1836 7.70975 48.1836 7.36842V6.21642C48.1836 5.86975 48.2556 5.57109 48.3996 5.32042C48.5436 5.06442 48.7489 4.86709 49.0156 4.72842C49.2876 4.58442 49.6022 4.51242 49.9596 4.51242C50.3222 4.51242 50.6369 4.58442 50.9036 4.72842C51.1702 4.86709 51.3756 5.06442 51.5196 5.32042C51.6636 5.57109 51.7356 5.86975 51.7356 6.21642V7.00042H49.0156V7.36842C49.0156 7.69375 49.0956 7.94175 49.2556 8.11242C49.4209 8.28309 49.6582 8.36842 49.9676 8.36842C50.2182 8.36842 50.4209 8.32575 50.5756 8.24042C50.7302 8.14975 50.8262 8.01909 50.8636 7.84842H51.7196C51.6556 8.22175 51.4636 8.52042 51.1436 8.74442C50.8236 8.96309 50.4289 9.07242 49.9596 9.07242ZM50.9036 6.48042V6.20842C50.9036 5.88842 50.8236 5.64042 50.6636 5.46442C50.5036 5.28842 50.2689 5.20042 49.9596 5.20042C49.6556 5.20042 49.4209 5.28842 49.2556 5.46442C49.0956 5.64042 49.0156 5.89109 49.0156 6.21642V6.41642L50.9676 6.40842L50.9036 6.48042ZM54.7484 9.07242C54.2204 9.07242 53.7991 8.92042 53.4844 8.61642C53.1698 8.30709 53.0124 7.88842 53.0124 7.36042V4.59242H53.8764V7.36042C53.8764 7.66442 53.9538 7.90175 54.1084 8.07242C54.2631 8.23775 54.4764 8.32042 54.7484 8.32042C55.0258 8.32042 55.2418 8.23775 55.3964 8.07242C55.5564 7.90175 55.6364 7.66442 55.6364 7.36042V4.59242H56.5004V7.36042C56.5004 7.88842 56.3404 8.30709 56.0204 8.61642C55.7058 8.92042 55.2818 9.07242 54.7484 9.07242ZM57.9693 8.99242V4.59242H58.8013V5.43242H59.0093L58.7453 5.95242C58.7453 5.47775 58.8493 5.12042 59.0573 4.88042C59.2653 4.63509 59.5747 4.51242 59.9853 4.51242C60.4547 4.51242 60.8253 4.65909 61.0973 4.95242C61.3747 5.24042 61.5133 5.63775 61.5133 6.14442V6.44042H60.6253V6.21642C60.6253 5.90175 60.5453 5.66175 60.3853 5.49642C60.2307 5.32575 60.012 5.24042 59.7293 5.24042C59.4467 5.24042 59.2253 5.32575 59.0653 5.49642C58.9107 5.66709 58.8333 5.90709 58.8333 6.21642V8.99242H57.9693Z" fill="black"/>
</svg>
