<svg width="2242" height="200" viewBox="0 0 2242 200" fill="none" xmlns="http://www.w3.org/2000/svg">
<path d="M2206.08 0H41.0089C18.3603 0 0 18.3603 0 41.0089C0 54.0919 6.10193 66.6571 17.4096 73.2376C106.071 124.834 190.751 77.5647 338.295 150.591C476.623 219.056 649.594 224.794 787.223 113.793L787.223 113.793C811.892 93.8977 824.226 83.9499 833.655 80.8732C843.514 77.6563 849.266 77.2345 859.489 78.9788C869.266 80.6471 881.16 87.6527 904.947 101.664C1077.99 203.59 1184.21 206.901 1324.98 117.933C1341.32 107.605 1349.49 102.441 1356.46 100.32C1363.6 98.1473 1368.09 97.6212 1375.54 98.0849C1382.81 98.5376 1392.34 101.806 1411.4 108.342C1513.33 143.3 1556.85 119.818 1613.19 84.4425C1626.01 76.3906 1632.42 72.3646 1639.56 70.2593C1645.95 68.3765 1652.43 67.6984 1659.07 68.2202C1666.49 68.8037 1674.25 71.6593 1689.78 77.3705C1921.49 162.583 2047.37 126.356 2217.38 70.0079C2232.06 65.1409 2242 51.3866 2242 35.9167C2242 16.0805 2225.92 0 2206.08 0Z" fill="white"/>
</svg>
